<svg xmlns="http://www.w3.org/2000/svg" viewBox="0 0 134.7 141.25">
  <g id="Capa_2" data-name="Capa 2">
    <g id="Layer_1" data-name="Layer 1">
      <g>
        <path d="M0,66.68c0,18.59,4,32.75,12.48,44.78,15.44,21.86,36.57,32.47,63.4,29.22,32.74-4,56.63-32.31,58.81-64.93.06-.9-.13-1.28-1.12-1.25-2.24.06-4.48.07-6.71,0-1,0-1.13.39-1.2,1.24a63,63,0,0,1-14.72,36.05,56.27,56.27,0,0,1-81.79,5.42c-25.52-23.41-27-64.6-3.23-89.82C46.3,5.77,78.2,3,101.6,20.78a60.58,60.58,0,0,1,20.64,28.67c.39,1.1.87,1.53,2.06,1.48,2.12-.11,4.26-.1,6.38,0,1.33.06,1.38-.4,1-1.5A70.79,70.79,0,0,0,109.5,15.57C89-1.8,60.09-5.08,36.67,8,12.31,21.58,1.1,43.24,0,66.68ZM92.06,50.91l.19-.37Q85,43.34,77.76,36.14a2.06,2.06,0,0,0-1.67-.45c-7,0-14.08,0-21.13,0a2.58,2.58,0,0,0-2,.8q-6.09,6.18-12.27,12.28a2.56,2.56,0,0,0-.83,2c0,4.53.1,9.06,0,13.59,0,1.56.46,1.85,1.9,1.84,20.53,0,41.05,0,61.57-.09,1.33,0,1.75.3,1.74,1.7-.07,7.59,0,15.17,0,22.76A3.11,3.11,0,0,1,104,93q-10.62,10.56-21.17,21.19a3.3,3.3,0,0,1-2.58,1c-8.46,0-16.92-.06-25.38,0a4.5,4.5,0,0,1-3.57-1.47C44,106.31,36.54,98.9,29.15,91.48a2.22,2.22,0,0,0-1.66-.89c-1.91,0-3.82,0-5.73,0-.42,0-1-.09-1,.53.06,1.9-.44,3.77,1.29,5.47,8.83,8.68,17.55,17.48,26.29,26.26a3.11,3.11,0,0,0,2.43,1q16.29-.06,32.58,0a3.46,3.46,0,0,0,2.71-1.12q13.16-13.24,26.38-26.4a3.24,3.24,0,0,0,1.07-2.57c0-11.46,0-22.92,0-34.38,0-1.52-.42-1.88-1.9-1.88-17,0-33.95,0-50.92,0-3.5,0-7,0-10.48,0-.46,0-1,.2-1.37-.29s0-4.65.62-5.3c2.24-2.3,4.52-4.58,6.74-6.91a2.49,2.49,0,0,1,2-.8q6.87,0,13.75,0a2.55,2.55,0,0,1,2,.85c1.63,1.69,3.31,3.33,5,5a2,2,0,0,0,1.5.85C84.33,50.9,88.19,50.91,92.06,50.91ZM39.48,90.61a7.71,7.71,0,0,0,.48.72c4.94,4.94,9.89,9.86,14.8,14.82a2.34,2.34,0,0,0,1.91.65c7.2,0,14.41,0,21.61,0a2.94,2.94,0,0,0,2.27-1c4.19-4.23,8.38-8.44,12.62-12.62a3.28,3.28,0,0,0,1.08-2.57c-.06-4.69-.1-9.38,0-14.07,0-1.59-.29-2.09-2-2.09-20.35.08-40.7,0-61.06.08-1.27,0-1.63-.32-1.62-1.61.06-7.26,0-14.52,0-21.77a2.6,2.6,0,0,1,.85-2Q41,38.64,51.47,28.08a2.63,2.63,0,0,1,2-.83q13.68,0,27.34,0a2.68,2.68,0,0,1,2.13.93c5.76,6,11.78,11.84,17.27,18.12,3.1,3.55,6.35,5.37,11.07,4.67,2-.31,2.88-1.44,1.89-3.35a5.23,5.23,0,0,0-.94-1.12Q99.19,33,86.17,19.57a2.86,2.86,0,0,0-2.32-.87q-17.1,0-34.21,0a3,3,0,0,0-2.43,1Q34.51,32.89,21.7,46a3.21,3.21,0,0,0-1,2.44c0,10.8.05,21.61,0,32.41,0,1.43.32,1.8,1.78,1.79q29.48-.07,58.94,0c3.94,0,3.91,0,4,4a4.12,4.12,0,0,1-1.23,3.5c-2.53,2.32-4.91,4.81-7.31,7.27a2.58,2.58,0,0,1-2,.85c-4.85,0-9.71,0-14.57,0a2.66,2.66,0,0,1-2.12-.94c-1.84-2-3.72-3.85-5.59-5.76-.41-.41-.75-.94-1.45-.94C47.29,90.62,43.5,90.61,39.48,90.61Z" fill="#1BB581"/>
        <path d="M0,66.68C1.1,43.24,12.31,21.58,36.67,8,60.09-5.08,89-1.8,109.5,15.57a70.79,70.79,0,0,1,22.22,33.85c.34,1.1.29,1.56-1,1.5-2.12-.09-4.26-.1-6.38,0-1.19,0-1.67-.38-2.06-1.48A60.58,60.58,0,0,0,101.6,20.78C78.2,3,46.3,5.77,25.92,27.39,2.14,52.61,3.63,93.8,29.15,117.21a56.27,56.27,0,0,0,81.79-5.42,63,63,0,0,0,14.72-36.05c.07-.85.21-1.27,1.2-1.24,2.23.07,4.47.06,6.71,0,1,0,1.18.35,1.12,1.25-2.18,32.62-26.07,61-58.81,64.93-26.83,3.25-48-7.36-63.4-29.22C4,99.43,0,85.27,0,66.68Z" fill="#1BB581"/>
        <path d="M92.06,50.91c-3.87,0-7.73,0-11.6,0a2,2,0,0,1-1.5-.85c-1.65-1.66-3.33-3.3-5-5a2.55,2.55,0,0,0-2-.85q-6.87.06-13.75,0a2.49,2.49,0,0,0-2,.8C54,47.38,51.73,49.66,49.49,52c-.63.65-1.09,4.66-.62,5.3s.91.29,1.37.29c3.49,0,7,0,10.48,0,17,0,34,0,50.92,0,1.48,0,1.91.36,1.9,1.88-.07,11.46-.05,22.92,0,34.38a3.24,3.24,0,0,1-1.07,2.57q-13.23,13.15-26.38,26.4a3.46,3.46,0,0,1-2.71,1.12q-16.29-.06-32.58,0a3.11,3.11,0,0,1-2.43-1c-8.74-8.78-17.46-17.58-26.29-26.26-1.73-1.7-1.23-3.57-1.29-5.47,0-.62.57-.53,1-.53,1.91,0,3.82,0,5.73,0a2.22,2.22,0,0,1,1.66.89C36.54,98.9,44,106.31,51.31,113.77a4.5,4.5,0,0,0,3.57,1.47c8.46-.07,16.92,0,25.38,0a3.3,3.3,0,0,0,2.58-1Q93.39,103.55,104,93a3.11,3.11,0,0,0,1-2.43c0-7.59-.06-15.17,0-22.76,0-1.4-.41-1.7-1.74-1.7-20.52.05-41,0-61.57.09-1.44,0-1.94-.28-1.9-1.84.12-4.53.06-9.06,0-13.59a2.56,2.56,0,0,1,.83-2q6.18-6.1,12.27-12.28a2.58,2.58,0,0,1,2-.8c7,0,14.09,0,21.13,0a2.06,2.06,0,0,1,1.67.45Q85,43.36,92.25,50.54Z" fill="#1BB581"/>
        <path d="M39.48,90.61c4,0,7.81,0,11.61,0,.7,0,1,.53,1.45.94,1.87,1.91,3.75,3.81,5.59,5.76a2.66,2.66,0,0,0,2.12.94c4.86,0,9.72,0,14.57,0a2.58,2.58,0,0,0,2-.85c2.4-2.46,4.78-5,7.31-7.27a4.12,4.12,0,0,0,1.23-3.5c0-4,0-4-4-4q-29.47,0-58.94,0c-1.46,0-1.79-.36-1.78-1.79.06-10.8,0-21.61,0-32.41a3.21,3.21,0,0,1,1-2.44Q34.5,32.88,47.21,19.68a3,3,0,0,1,2.43-1q17.1,0,34.21,0a2.86,2.86,0,0,1,2.32.87q13,13.5,26.07,26.93a5.23,5.23,0,0,1,.94,1.12c1,1.91.13,3-1.89,3.35-4.72.7-8-1.12-11.07-4.67C94.73,40,88.71,34.21,83,28.18a2.68,2.68,0,0,0-2.13-.93q-13.66,0-27.34,0a2.63,2.63,0,0,0-2,.83Q41,38.66,30.42,49.16a2.6,2.6,0,0,0-.85,2c0,7.25.05,14.51,0,21.77,0,1.29.35,1.61,1.62,1.61,20.36,0,40.71,0,61.06-.08,1.73,0,2.05.5,2,2.09-.11,4.69-.07,9.38,0,14.07a3.28,3.28,0,0,1-1.08,2.57c-4.24,4.18-8.43,8.39-12.62,12.62a2.94,2.94,0,0,1-2.27,1c-7.2,0-14.41,0-21.61,0a2.34,2.34,0,0,1-1.91-.65c-4.91-5-9.86-9.88-14.8-14.82A7.71,7.71,0,0,1,39.48,90.61Z" fill="#1BB581"/>
      </g>
    </g>
  </g>
</svg>
