<svg xmlns="http://www.w3.org/2000/svg" viewBox="0 0 829.15 841.52">
      <g id='logo'>
        <g>
          <path d="M663.53,762.82l-4-5.3A411.27,411.27,0,0,0,778.14,616.08,409.4,409.4,0,0,0,413,21V14.32A415.84,415.84,0,0,1,829.15,430.49,416.35,416.35,0,0,1,663.53,762.82Z" fill="#1dd68f"/>
          <polygon points="435 37.31 397.99 18.65 435 0 435 37.31" fill="#1dd68f"/>
        </g>
        <g>
          <path d="M585.45,805.48l-2.7-6.07c2.65-1.18,5.34-2.41,8-3.66l2.83,6C590.88,803,588.15,804.28,585.45,805.48Z" fill="#fff"/>
          <path d="M416.54,841.52c-4.14,0-8.34-.06-12.48-.19l.2-6.64c5.8.18,11.68.23,17.49.15l.08,6.65C420.08,841.51,418.3,841.52,416.54,841.52Zm14.17-.24-.23-6.64c5.79-.2,11.66-.53,17.44-1l.52,6.63C442.56,840.74,436.59,841.08,430.71,841.28ZM395.18,841c-5.89-.3-11.85-.74-17.71-1.29l.62-6.62c5.78.55,11.64,1,17.44,1.27Zm62.1-1.46-.66-6.61c5.77-.57,11.61-1.28,17.35-2.1l.94,6.58C469.07,838.21,463.14,838.93,457.28,839.51Zm-88.65-.77c-5.85-.68-11.77-1.49-17.59-2.42l1-6.56c5.74.91,11.56,1.72,17.32,2.38ZM483.68,836l-1.08-6.55c5.73-1,11.5-2,17.18-3.21l1.36,6.5C495.37,834,489.5,835.07,483.68,836Zm-141.4-1.2c-5.79-1.06-11.65-2.25-17.4-3.55l1.47-6.48c5.66,1.28,11.42,2.45,17.12,3.49Zm167.53-4-1.5-6.47c5.64-1.31,11.34-2.76,16.93-4.31l1.78,6.4C521.34,828.06,515.55,829.53,509.81,830.86Zm-193.57-1.62c-5.72-1.42-11.48-3-17.13-4.64l1.87-6.38c5.56,1.63,11.23,3.17,16.86,4.57ZM535.55,824l-1.91-6.36c5.54-1.67,11.13-3.48,16.62-5.39l2.18,6.28C546.87,820.49,541.18,822.33,535.55,824Zm-244.93-2c-5.62-1.78-11.28-3.7-16.81-5.72l2.28-6.24c5.44,2,11,3.88,16.53,5.63Zm270.18-6.46-2.32-6.22c5.43-2,10.9-4.18,16.25-6.44l2.58,6.13C571.87,811.3,566.31,813.5,560.8,815.54Zm-295.29-2.38c-5.49-2.14-11-4.42-16.41-6.78l2.67-6.08c5.31,2.32,10.74,4.57,16.14,6.66ZM241,802.74c-5.35-2.48-10.71-5.11-15.94-7.81l3-5.9c5.14,2.66,10.42,5.24,15.68,7.68Zm-23.78-12c-5.18-2.81-10.36-5.77-15.4-8.8l3.41-5.7c5,3,10.07,5.89,15.16,8.66Zm-23-13.44c-5-3.14-10-6.42-14.81-9.76l3.78-5.47c4.76,3.29,9.67,6.52,14.57,9.61Zm-22.05-14.88c-4.77-3.44-9.53-7-14.15-10.69l4.12-5.21c4.54,3.59,9.23,7.12,13.92,10.52Zm-21-16.25c-4.54-3.74-9.06-7.64-13.44-11.57l4.45-4.94c4.3,3.87,8.75,7.7,13.22,11.38Zm-20-17.56c-4.29-4-8.55-8.21-12.66-12.41l4.76-4.64c4,4.13,8.23,8.24,12.45,12.2Zm-18.77-18.81c-4-4.29-8-8.73-11.83-13.19l5-4.33c3.77,4.39,7.68,8.76,11.64,13Zm-17.52-20c-3.74-4.55-7.44-9.24-11-14l5.31-4c3.48,4.63,7.12,9.25,10.8,13.72ZM78.7,668.79c-3.44-4.78-6.83-9.7-10.06-14.63l5.55-3.65c3.19,4.85,6.52,9.69,9.9,14.39Zm-14.85-22.1c-3.13-5-6.19-10.11-9.11-15.24l5.78-3.28c2.87,5,5.88,10.09,9,15Zm-13.41-23c-2.8-5.17-5.53-10.48-8.12-15.78l6-2.91c2.55,5.22,5.23,10.44,8,15.53Zm-11.93-23.8c-2.48-5.35-4.87-10.83-7.12-16.27l6.14-2.53c2.21,5.35,4.57,10.74,7,16ZM28.09,575.37c-2.13-5.5-4.17-11.11-6.07-16.69l6.29-2.13c1.87,5.48,3.88,11,6,16.42Zm-8.84-25.12c-1.77-5.63-3.45-11.36-5-17l6.42-1.73c1.51,5.6,3.16,11.24,4.91,16.77ZM12,524.6c-1.41-5.72-2.72-11.55-3.88-17.32L14.67,506c1.15,5.68,2.43,11.42,3.82,17.05ZM6.49,498.55c-1-5.8-2-11.7-2.76-17.54l6.59-.89c.77,5.74,1.69,11.55,2.71,17.26ZM2.63,472.2C2,466.35,1.42,460.4,1,454.52l6.63-.47c.4,5.79.94,11.64,1.6,17.4ZM.48,445.65C.2,439.77,0,433.8,0,427.91l6.64,0c0,5.8.2,11.67.48,17.46Zm6.21-26.52L0,419c.1-5.89.32-11.86.66-17.75l6.64.39C7,407.46,6.78,413.34,6.69,419.13ZM7.94,393l-6.62-.53c.47-5.88,1.07-11.82,1.79-17.67l6.59.82C9,381.33,8.4,387.18,7.94,393Zm2.92-26-6.57-1c.84-5.83,1.83-11.72,2.92-17.51l6.53,1.23C12.66,355.38,11.7,361.18,10.86,366.92Zm4.59-25.8L9,339.75c1.21-5.77,2.57-11.58,4-17.29l6.44,1.64C18,329.72,16.64,335.44,15.45,341.12Zm6.21-25.46-6.4-1.78c1.58-5.67,3.3-11.39,5.12-17l6.32,2.05C24.91,304.45,23.22,310.08,21.66,315.66Zm7.82-25-6.27-2.18c1.94-5.56,4-11.16,6.19-16.64l6.18,2.45C33.44,279.67,31.39,285.18,29.48,290.65Zm9.4-24.46-6.12-2.57c2.28-5.43,4.72-10.89,7.23-16.21l6,2.83C43.53,255.48,41.13,260.85,38.88,266.19Z" fill="#fff"/>
          <path d="M49.88,242.25l-6-3c1.32-2.66,2.69-5.33,4.07-7.95l5.88,3.09C52.53,237,51.18,239.64,49.88,242.25Z" fill="#fff"/>
        </g>
        <path d="M413,813.7A383.31,383.31,0,0,1,263.81,77.4,380.88,380.88,0,0,1,413,47.28,382.73,382.73,0,0,1,725.74,209l-4.34,3.07A381.15,381.15,0,0,0,589.26,96.15,378,378,0,1,0,265.88,778.69,375.46,375.46,0,0,0,413,808.39Z" fill="#63c690"/>
      </g>
      <g id='circle' opacity="0.45">
        <path d="M677.75,416.1l87.46-3.53a350.41,350.41,0,0,0-38.07-145.81l-78,39.75A263.47,263.47,0,0,1,677.75,416.1Z" fill="#63c690"/>
        <path d="M413.12,691.62A264,264,0,0,1,227,615.15l-61.52,62.26A351.24,351.24,0,0,0,413.12,779.15q9.08,0,18.05-.46l-4.49-87.41Q419.95,691.61,413.12,691.62Z" fill="#63c690"/>
        <path d="M653.77,537.5l79.53,36.6a352.23,352.23,0,0,0,14.09-35.55l-83-27.93A265.34,265.34,0,0,1,653.77,537.5Z" fill="#63c690"/>
        <path d="M554.69,650.64l46.79,74A354.26,354.26,0,0,0,708.68,618.7L635.26,571A266.45,266.45,0,0,1,554.69,650.64Z" fill="#63c690"/>
        <path d="M675.06,466.07a263.52,263.52,0,0,1-7.38,34l84.07,24.43a350.69,350.69,0,0,0,9.87-45.34Z" fill="#63c690"/>
        <path d="M676.45,455.14l87,9.45q1-9.61,1.53-19.38l-87.41-4.58Q677.23,447.94,676.45,455.14Z" fill="#63c690"/>
        <path d="M637,285.2l74-46.79C651.58,144.7,549.19,80.94,431.55,74.88L427,162.29A264.69,264.69,0,0,1,637,285.2Z" fill="#63c690"/>
        <path d="M157.65,496.86,73.22,520a349.13,349.13,0,0,0,15.3,44.11L169.15,530A262.13,262.13,0,0,1,157.65,496.86Z" fill="#63c690"/>
        <path d="M437.77,690.48l8.15,87.16a350.32,350.32,0,0,0,104.56-26.27l-34.12-80.63A263.3,263.3,0,0,1,437.77,690.48Z" fill="#63c690"/>
        <path d="M148.27,426.77a264.25,264.25,0,0,1,90.43-199.3l-57.19-66.26A353,353,0,0,0,69.61,505.68l85.33-19.6A265.84,265.84,0,0,1,148.27,426.77Z" fill="#63c690"/>
        <path d="M197.06,580l-71.41,50.63a355,355,0,0,0,29.49,36.2l64.08-59.63A265.61,265.61,0,0,1,197.06,580Z" fill="#63c690"/>
        <path d="M526.49,666.19,564,745.31q4.62-2.19,9.17-4.51l-39.75-78Q530,664.54,526.49,666.19Z" fill="#63c690"/>
        <path d="M173.7,540.15,94.58,577.62a351.56,351.56,0,0,0,22.77,40.76l73.47-47.59A265.48,265.48,0,0,1,173.7,540.15Z" fill="#63c690"/>
        <path d="M402.44,162.14l-3.53-87.46a352.65,352.65,0,0,0-65.56,8.79l20.07,85.22A265.3,265.3,0,0,1,402.44,162.14Z" fill="#63c690"/>
        <path d="M330.19,175.18l-27.88-83a351.34,351.34,0,0,0-95.16,48.66L258,212.11A263.92,263.92,0,0,1,330.19,175.18Z" fill="#63c690"/>
      </g>
      <g id='outer'>
        <path d="M228.08,409.82c0,51.49,11,90.7,34.57,124,42.75,60.54,101.27,89.92,175.56,80.91C528.85,603.73,595,525.26,601,435c.17-2.51-.35-3.55-3.09-3.47-6.19.17-12.4.18-18.59,0-2.72-.08-3.12,1.09-3.32,3.45-3.14,37.52-16.52,70.87-40.76,99.81-58.12,69.38-159.81,76.14-226.47,15C238.12,484.93,234,370.87,299.85,301c56.43-59.86,144.78-67.63,209.58-18.29,27.07,20.61,45.83,47.38,57.15,79.37,1.08,3.06,2.39,4.26,5.7,4.1,5.88-.29,11.79-.27,17.67,0,3.68.16,3.81-1.1,2.87-4.16-11.47-37.2-31.81-68.54-61.53-93.74-56.73-48.09-136.82-57.19-201.65-21C262.19,285,231.14,344.94,228.08,409.82ZM483,366.17l.52-1q-20.07-19.94-40.12-39.87c-1.37-1.38-3-1.23-4.63-1.23-19.5,0-39,0-58.49,0a7.1,7.1,0,0,0-5.6,2.23q-16.89,17.08-34,34a7.06,7.06,0,0,0-2.3,5.54c.1,12.55.26,25.09-.07,37.63-.11,4.31,1.29,5.11,5.28,5.1,56.82-.15,113.65-.11,170.47-.25,3.69,0,4.86.83,4.82,4.7-.19,21-.14,42,0,63a8.59,8.59,0,0,1-2.78,6.74q-29.42,29.24-58.63,58.66a9.09,9.09,0,0,1-7.15,2.92c-23.42-.1-46.85-.15-70.27,0a12.48,12.48,0,0,1-9.89-4.08c-20.35-20.67-40.89-41.16-61.35-61.72-1.3-1.31-2.5-2.5-4.6-2.45-5.28.11-10.57,0-15.86,0-1.17,0-2.81-.26-2.75,1.48.16,5.25-1.23,10.43,3.56,15.13,24.47,24,48.61,48.4,72.79,72.73a8.64,8.64,0,0,0,6.74,2.78q45.12-.15,90.23,0a9.59,9.59,0,0,0,7.51-3.1q36.4-36.66,73-73.09a9.11,9.11,0,0,0,3-7.12c-.09-31.73-.14-63.47.05-95.2,0-4.21-1.15-5.22-5.26-5.21-47,.15-94,.09-141,.09-9.67,0-19.34,0-29,0-1.28,0-2.79.55-3.78-.8-1.3-1.78-.05-12.89,1.7-14.68,6.21-6.39,12.52-12.69,18.67-19.14a6.88,6.88,0,0,1,5.58-2.22c12.69.08,25.39.1,38.08,0a7,7,0,0,1,5.54,2.36c4.51,4.68,9.16,9.21,13.75,13.82,1.16,1.17,2.19,2.34,4.15,2.33C461.59,366.13,472.3,366.17,483,366.17ZM337.41,476.1a17,17,0,0,0,1.33,2c13.66,13.68,27.37,27.32,41,41.05,1.58,1.6,3.27,1.82,5.28,1.81,19.95,0,39.9-.07,59.84,0a8.08,8.08,0,0,0,6.3-2.76q17.37-17.57,34.92-35a9,9,0,0,0,3-7.1c-.16-13-.26-26,0-39,.1-4.41-.79-5.8-5.58-5.78-56.36.2-112.72.1-169.08.21-3.53,0-4.53-.88-4.5-4.47.18-20.09.12-40.18.05-60.28a7.19,7.19,0,0,1,2.33-5.56q29.22-29.1,58.3-58.35a7.15,7.15,0,0,1,5.57-2.3q37.86.1,75.71,0a7.4,7.4,0,0,1,5.88,2.56c16,16.71,32.62,32.81,47.82,50.19,8.59,9.84,17.59,14.86,30.66,12.91,5.6-.83,8-4,5.23-9.26a14.1,14.1,0,0,0-2.61-3.09q-36.11-37.29-72.17-74.59c-1.92-2-3.9-2.41-6.42-2.41q-47.38.07-94.75,0a8.38,8.38,0,0,0-6.72,2.74q-35.21,36.58-70.63,72.92a8.85,8.85,0,0,0-2.75,6.77c.09,29.92.13,59.83,0,89.74,0,3.95.91,5,4.95,5q81.6-.22,163.19-.1c10.9,0,10.83,0,10.94,11.08,0,3.72-.27,6.82-3.39,9.68-7,6.43-13.59,13.33-20.25,20.13a7.13,7.13,0,0,1-5.56,2.37c-13.45-.09-26.9-.11-40.34,0a7.37,7.37,0,0,1-5.89-2.63c-5.08-5.38-10.28-10.65-15.47-15.92-1.13-1.16-2.08-2.63-4-2.62C359,476.11,348.53,476.1,337.41,476.1Z" fill="#1ab580"/>
        <path d="M228.08,409.82C231.14,344.94,262.19,285,329.64,247.3c64.83-36.19,144.92-27.09,201.65,21C561,293.5,581.35,324.84,592.82,362c.94,3.06.81,4.32-2.87,4.16-5.88-.26-11.79-.28-17.67,0-3.31.16-4.62-1-5.7-4.1-11.32-32-30.08-58.76-57.15-79.37C444.63,233.4,356.28,241.17,299.85,301c-65.83,69.84-61.73,183.9,8.95,248.72,66.66,61.13,168.35,54.37,226.47-15,24.24-28.94,37.62-62.29,40.76-99.81.2-2.36.6-3.53,3.32-3.45,6.19.19,12.4.18,18.59,0,2.74-.08,3.26,1,3.09,3.47-6,90.3-72.18,168.77-162.82,179.77-74.29,9-132.81-20.37-175.56-80.91C239.13,500.52,228.06,461.31,228.08,409.82Z" fill="#1ab580"/>
        <path d="M483,366.17c-10.7,0-21.41,0-32.11,0-2,0-3-1.16-4.15-2.33-4.59-4.61-9.24-9.14-13.75-13.82a7,7,0,0,0-5.54-2.36c-12.69.12-25.39.1-38.08,0a6.88,6.88,0,0,0-5.58,2.22c-6.15,6.45-12.46,12.75-18.67,19.14-1.75,1.79-3,12.9-1.7,14.68,1,1.35,2.5.79,3.78.8,9.67.05,19.34,0,29,0,47,0,94,.06,141-.09,4.11,0,5.28,1,5.26,5.21-.19,31.73-.14,63.47-.05,95.2a9.11,9.11,0,0,1-3,7.12q-36.63,36.43-73,73.09a9.59,9.59,0,0,1-7.51,3.1q-45.12-.16-90.23,0a8.64,8.64,0,0,1-6.74-2.78c-24.18-24.33-48.32-48.7-72.79-72.73-4.79-4.7-3.4-9.88-3.56-15.13-.06-1.74,1.58-1.47,2.75-1.48,5.29,0,10.58.07,15.86,0,2.1-.05,3.3,1.14,4.6,2.45,20.46,20.56,41,41,61.35,61.72a12.48,12.48,0,0,0,9.89,4.08c23.42-.19,46.85-.14,70.27,0a9.09,9.09,0,0,0,7.15-2.92q29.22-29.43,58.63-58.66a8.59,8.59,0,0,0,2.78-6.74c-.11-21-.16-42,0-63,0-3.87-1.13-4.71-4.82-4.7-56.82.14-113.65.1-170.47.25-4,0-5.39-.79-5.28-5.1.33-12.54.17-25.08.07-37.63a7.06,7.06,0,0,1,2.3-5.54q17.09-16.9,34-34a7.1,7.1,0,0,1,5.6-2.23c19.5.06,39,0,58.49,0,1.64,0,3.26-.15,4.63,1.23q20,20,40.12,39.87Z" fill="#1ab580"/>
        <path d="M337.41,476.1c11.12,0,21.62,0,32.13,0,1.95,0,2.9,1.46,4,2.62C378.76,484,384,489.25,389,494.63a7.37,7.37,0,0,0,5.89,2.63c13.44-.12,26.89-.1,40.34,0a7.13,7.13,0,0,0,5.56-2.37c6.66-6.8,13.24-13.7,20.25-20.13,3.12-2.86,3.43-6,3.39-9.68-.11-11.08,0-11.08-10.94-11.08q-81.6,0-163.19.1c-4,0-5-1-4.95-5,.17-29.91.13-59.82,0-89.74a8.85,8.85,0,0,1,2.75-6.77q35.42-36.35,70.63-72.92a8.38,8.38,0,0,1,6.72-2.74q47.37.1,94.75,0c2.52,0,4.5.42,6.42,2.41q36,37.38,72.17,74.59a14.1,14.1,0,0,1,2.61,3.09c2.73,5.29.37,8.43-5.23,9.26-13.07,1.95-22.07-3.07-30.66-12.91-15.2-17.38-31.86-33.48-47.82-50.19a7.4,7.4,0,0,0-5.88-2.56q-37.86.12-75.71,0a7.15,7.15,0,0,0-5.57,2.3q-29.08,29.24-58.3,58.35a7.19,7.19,0,0,0-2.33,5.56c.07,20.1.13,40.19-.05,60.28,0,3.59,1,4.47,4.5,4.47,56.36-.11,112.72,0,169.08-.21,4.79,0,5.68,1.37,5.58,5.78-.3,13-.2,26,0,39a9,9,0,0,1-3,7.1q-17.58,17.36-34.92,35a8.08,8.08,0,0,1-6.3,2.76c-19.94-.11-39.89-.07-59.84,0-2,0-3.7-.21-5.28-1.81-13.61-13.73-27.32-27.37-41-41.05A17,17,0,0,1,337.41,476.1Z" fill="#1ab580"/>
      </g>
</svg>
